<svg xmlns="http://www.w3.org/2000/svg" width="36" height="46" viewBox="0 0 36 46">
  <g id="Groupe_86" data-name="Groupe 86" transform="translate(-961 -258)">
    <rect id="Rectangle_66" data-name="Rectangle 66" width="36" height="36" rx="4" transform="translate(961 258)" fill="#26b0d2"/>
    <path id="reed-svgrepo-com" d="M103.193,23.444h-2.587a12.441,12.441,0,0,1,1.507-5.394.441.441,0,0,0-.754-.46,13.08,13.08,0,0,0-1.637,5.854H99.7A37.224,37.224,0,0,1,100.94,14.1a20.565,20.565,0,0,1,1.244-3.5.441.441,0,0,0-.787-.4,20.866,20.866,0,0,0-1.3,3.635,38.092,38.092,0,0,0-1.281,9.61h-.79V14.921a1.69,1.69,0,0,0,1.246-1.629V6.205a1.69,1.69,0,0,0-1.246-1.629V3.713a.441.441,0,1,0-.883,0v.864A1.69,1.69,0,0,0,95.9,6.205v7.088a1.69,1.69,0,0,0,1.246,1.629v8.522H96.46a19.992,19.992,0,0,0-1.17-6.421.441.441,0,0,0-.82.327,19.514,19.514,0,0,1,1.107,6.094H94.054V11.65A1.69,1.69,0,0,0,95.3,10.021V2.934a1.69,1.69,0,0,0-1.246-1.629V.441a.441.441,0,0,0-.883,0v.864a1.69,1.69,0,0,0-1.246,1.629v7.088a1.69,1.69,0,0,0,1.246,1.629V23.444H92.65A45.216,45.216,0,0,0,91,11.271a21.974,21.974,0,0,0-1.676-4.349.441.441,0,0,0-.768.435,21.709,21.709,0,0,1,1.607,4.2,42.45,42.45,0,0,1,1.511,9.153,18.2,18.2,0,0,0-.929-3.686.441.441,0,0,0-.82.328,19.429,19.429,0,0,1,1.107,6.093H89.407a.441.441,0,0,0,0,.883h13.786a.441.441,0,1,0,0-.883ZM96.78,13.293V6.205a.8.8,0,1,1,1.61,0v7.088a.806.806,0,0,1-.8.8h0A.806.806,0,0,1,96.78,13.293Zm-3.972-3.271V2.934a.8.8,0,0,1,1.61,0v7.088a.806.806,0,0,1-.8.8h0A.806.806,0,0,1,92.808,10.021Z" transform="translate(882.934 263.837)" fill="#fff"/>
    <path id="Polygone_48" data-name="Polygone 48" d="M5.106,1.789a1,1,0,0,1,1.789,0l4.382,8.764A1,1,0,0,1,10.382,12H1.618a1,1,0,0,1-.894-1.447Z" transform="translate(985 304) rotate(180)" fill="#26b0d2"/>
  </g>
</svg>
