<svg xmlns="http://www.w3.org/2000/svg" xmlns:xlink="http://www.w3.org/1999/xlink" width="36" height="46" viewBox="0 0 36 46">
  <defs>
    <clipPath id="clip-path">
      <rect id="Rectangle_2" data-name="Rectangle 2" width="27.422" height="17.929" fill="#fff"/>
    </clipPath>
  </defs>
  <g id="Groupe_85" data-name="Groupe 85" transform="translate(-1301 -188)">
    <rect id="Rectangle_46" data-name="Rectangle 46" width="36" height="36" rx="4" transform="translate(1301 188)" fill="#26b0d2"/>
    <g id="Groupe_52" data-name="Groupe 52" transform="translate(1305.256 195.566)">
      <g id="Groupe_40" data-name="Groupe 40" clip-path="url(#clip-path)">
        <path id="Tracé_286" data-name="Tracé 286" d="M27.361,13.5a2.192,2.192,0,0,0-1.727-1.372c.849-2.069.784-3.771-.2-4.427a1.639,1.639,0,0,0-.916-.264c.457-1.62.264-2.864-.557-3.409a2.28,2.28,0,0,0-2.343.14c.121-1.449-.249-2.495-1.057-2.886-.791-.383-1.823-.043-2.868.912C17.461,1.01,16.926.248,16.158.049c-.784-.2-1.654.237-2.447,1.217-.792-.98-1.662-1.42-2.447-1.217-.769.2-1.3.961-1.531,2.143C8.688,1.237,7.656.9,6.865,1.28c-.807.391-1.178,1.437-1.057,2.886a2.28,2.28,0,0,0-2.343-.14c-.821.545-1.013,1.79-.557,3.409a1.639,1.639,0,0,0-.916.264c-.987.655-1.052,2.358-.2,4.427A2.193,2.193,0,0,0,.061,13.5c-.288.993.444,2.127,2.008,3.111a8.727,8.727,0,0,0,4.662,1.32H20.69a8.727,8.727,0,0,0,4.662-1.32c1.564-.985,2.3-2.119,2.008-3.111m-2.546,2.257a7.719,7.719,0,0,1-4.124,1.164H6.732a7.718,7.718,0,0,1-4.124-1.164c-1.087-.684-1.72-1.478-1.576-1.975.109-.375.685-.665,1.542-.776a.505.505,0,0,0,.391-.719c-.948-1.98-.921-3.406-.413-3.743a.653.653,0,0,1,.366-.1,1.725,1.725,0,0,1,.57.118.505.505,0,0,0,.645-.657c-.659-1.7-.518-2.766-.108-3.039s1.241.026,2.147.742A.505.505,0,0,0,6.977,5.1c-.33-1.461-.2-2.659.328-2.912.508-.246,1.5.358,2.424,1.468a.505.505,0,0,0,.894-.306c.04-1.262.4-2.2.894-2.324.458-.118,1.152.422,1.769,1.376a.505.505,0,0,0,.848,0c.617-.954,1.312-1.494,1.769-1.376.494.128.853,1.062.894,2.324a.505.505,0,0,0,.894.306c.92-1.11,1.917-1.714,2.424-1.467.524.254.659,1.452.328,2.912a.505.505,0,0,0,.806.508C22.156,4.894,23,4.6,23.4,4.868s.551,1.339-.108,3.039a.505.505,0,0,0,.645.657,1.112,1.112,0,0,1,.936-.022c.507.337.535,1.763-.413,3.743a.505.505,0,0,0,.391.719c.857.111,1.433.4,1.542.776.144.5-.489,1.291-1.576,1.975" transform="translate(0 0)" fill="#fff"/>
      </g>
    </g>
    <path id="plus-svgrepo-com" d="M13.293,7.062H9.4V3.168a1.168,1.168,0,0,0-2.336,0V7.062H3.168a1.168,1.168,0,0,0,0,2.336H7.062v3.894a1.168,1.168,0,0,0,2.336,0V9.4h3.894a1.168,1.168,0,0,0,0-2.336Z" transform="translate(1318.218 203.531)" fill="#fff"/>
    <path id="Polygone_31" data-name="Polygone 31" d="M5.106,1.789a1,1,0,0,1,1.789,0l4.382,8.764A1,1,0,0,1,10.382,12H1.618a1,1,0,0,1-.894-1.447Z" transform="translate(1325 234) rotate(180)" fill="#26b0d2"/>
  </g>
</svg>
