<svg xmlns="http://www.w3.org/2000/svg" width="36" height="46" viewBox="0 0 36 46">
  <g id="Groupe_89" data-name="Groupe 89" transform="translate(-1029 -349)">
    <rect id="Rectangle_59" data-name="Rectangle 59" width="36" height="36" rx="4" transform="translate(1029 349)" fill="#265162"/>
    <g id="swimming-pool-water-waves-with-ladder-svgrepo-com" transform="translate(1035.015 245.671)">
      <g id="Groupe_3" data-name="Groupe 3" transform="translate(0 115.076)">
        <path id="Tracé_6" data-name="Tracé 6" d="M.45,159.53l3.216,1.782a3.54,3.54,0,0,0,3.173-.03l1.888-1.094a1.786,1.786,0,0,1,.825-.18,1.663,1.663,0,0,1,.695.134l2.5,1.239a3.588,3.588,0,0,0,3.169-.141l1.681-1.035a1.675,1.675,0,0,1,.815-.19,1.522,1.522,0,0,1,.657.13l3.641,1.828a.885.885,0,0,0,1.17-.388.874.874,0,0,0-.388-1.171l-3.64-1.827a3.567,3.567,0,0,0-3.17.134L15,159.757a1.7,1.7,0,0,1-.823.192,1.54,1.54,0,0,1-.655-.127l-2.5-1.24a3.712,3.712,0,0,0-3.169.1l-1.888,1.094a1.577,1.577,0,0,1-.744.165,1.551,1.551,0,0,1-.71-.152l-3.216-1.782a.892.892,0,0,0-1.185.34A.872.872,0,0,0,.45,159.53Z" transform="translate(0 -153.729)" fill="#fff"/>
        <path id="Tracé_7" data-name="Tracé 7" d="M.452,202.346l3.216,1.782a3.544,3.544,0,0,0,3.173-.03L8.729,203a1.8,1.8,0,0,1,.825-.181,1.669,1.669,0,0,1,.694.134l2.5,1.24a3.585,3.585,0,0,0,3.169-.14l1.681-1.035a1.674,1.674,0,0,1,.814-.19,1.519,1.519,0,0,1,.657.129l3.641,1.828a.885.885,0,0,0,1.17-.388.873.873,0,0,0-.388-1.17l-3.64-1.827a3.571,3.571,0,0,0-3.17.134L15,202.573a1.7,1.7,0,0,1-.824.191,1.528,1.528,0,0,1-.654-.128l-2.5-1.24a3.711,3.711,0,0,0-3.169.1l-1.888,1.093a1.57,1.57,0,0,1-.744.166,1.553,1.553,0,0,1-.709-.152L1.3,200.821a.892.892,0,0,0-1.185.34A.872.872,0,0,0,.452,202.346Z" transform="translate(-0.002 -192.373)" fill="#fff"/>
        <path id="Tracé_8" data-name="Tracé 8" d="M.624,116.709,3.84,118.49a3.509,3.509,0,0,0,3.143-.03l1.887-1.094a1.831,1.831,0,0,1,.842-.184,1.7,1.7,0,0,1,.708.137l2.5,1.239a3.558,3.558,0,0,0,3.14-.139l1.68-1.036a1.721,1.721,0,0,1,.833-.193,1.545,1.545,0,0,1,.67.133l3.64,1.827a.859.859,0,0,0,1.142-.394.88.88,0,0,0-.387-1.17l-3.641-1.827a2.708,2.708,0,0,0-.374-.15,3.572,3.572,0,0,0-2.256.047,2.722,2.722,0,0,0-.509.235l-1.681,1.036a1.742,1.742,0,0,1-.841.194,1.56,1.56,0,0,1-.668-.13l-2.5-1.239a3.677,3.677,0,0,0-3.14.1l-1.98,1.137a1.718,1.718,0,0,1-.669.125,1.576,1.576,0,0,1-.724-.155l-3.216-1.781a.863.863,0,0,0-1.156.347A.882.882,0,0,0,.624,116.709Z" transform="translate(-0.16 -115.076)" fill="#fff"/>
      </g>
    </g>
    <path id="Polygone_40" data-name="Polygone 40" d="M5.106,1.789a1,1,0,0,1,1.789,0l4.382,8.764A1,1,0,0,1,10.382,12H1.618a1,1,0,0,1-.894-1.447Z" transform="translate(1053 395) rotate(180)" fill="#265162"/>
  </g>
</svg>
