<svg xmlns="http://www.w3.org/2000/svg" width="36" height="46" viewBox="0 0 36 46">
  <g id="Groupe_90" data-name="Groupe 90" transform="translate(-1165 -349)">
    <rect id="Rectangle_51" data-name="Rectangle 51" width="36" height="36" rx="4" transform="translate(1165 349)" fill="#265162"/>
    <g id="scissors-svgrepo-com" transform="translate(1170.933 336.223)">
      <path id="Tracé_266" data-name="Tracé 266" d="M332.747,113.09a.785.785,0,0,0-1.3-.529,7.767,7.767,0,0,1-4.058,1.626c-.176.554-.3,1.067-.384,1.465.008.053.013.107.019.161a11.452,11.452,0,0,0,3.834-1.009,4.912,4.912,0,0,1-2.86,2.611,5.8,5.8,0,0,1-1.227.347,4.229,4.229,0,0,1-.96,1.482q-.078.078-.159.151c.089,0,.18.006.272.006a7.072,7.072,0,0,0,2.661-.532,6.418,6.418,0,0,0,3.747-3.524A5.324,5.324,0,0,0,332.747,113.09Z" transform="translate(-308.619 -87.78)" fill="#fff"/>
      <path id="Tracé_267" data-name="Tracé 267" d="M20.276,21.346a.785.785,0,0,0-.188-1.39,5.324,5.324,0,0,0-2.288-.163,6.419,6.419,0,0,0-4.349,2.748,6.812,6.812,0,0,0-1.387,4.312,2.67,2.67,0,0,0-.526,1.312l-1.961.061a2.042,2.042,0,0,0-2.315-.48L.469,30.73a.785.785,0,0,0-.36,1.117L1.385,34.01a.784.784,0,0,0,.991.32L8.91,31.461a2.019,2.019,0,0,0,1.2-1.68l1.716-.053a2.682,2.682,0,0,0,.919,1l-.49,1.681a2.02,2.02,0,0,0-1.927.745l-4.41,5.611a.785.785,0,0,0,.062,1.04l1.776,1.776a.785.785,0,0,0,.555.23H8.36a.784.784,0,0,0,.57-.3l4.585-5.833a2.042,2.042,0,0,0,.113-2.362l.63-2.161a2.679,2.679,0,0,0,2.556-3.293C17.136,26.178,18.032,22.882,20.276,21.346ZM8.53,29.747a.455.455,0,0,1-.25.277l-5.9,2.589-.473-.8,5.984-2.627a.471.471,0,0,1,.6.192A.455.455,0,0,1,8.53,29.747Zm3.752,4.962L8.243,39.847l-.658-.658,3.98-5.063a.455.455,0,0,1,.68-.041A.471.471,0,0,1,12.282,34.709Zm2.709-5.446a1.114,1.114,0,1,1,0-1.576A1.116,1.116,0,0,1,14.99,29.263Zm.6-3.085a2.692,2.692,0,0,0-1.9-.337,5.436,5.436,0,0,1,1.021-2.367,4.907,4.907,0,0,1,3.245-2.12A12.687,12.687,0,0,0,15.589,26.178Z" transform="translate(0)" fill="#fff"/>
    </g>
    <path id="Polygone_41" data-name="Polygone 41" d="M5.106,1.789a1,1,0,0,1,1.789,0l4.382,8.764A1,1,0,0,1,10.382,12H1.618a1,1,0,0,1-.894-1.447Z" transform="translate(1189 395) rotate(180)" fill="#265162"/>
  </g>
</svg>
