<svg xmlns="http://www.w3.org/2000/svg" width="36" height="46" viewBox="0 0 36 46">
  <g id="Groupe_91" data-name="Groupe 91" transform="translate(-1233 -349)">
    <rect id="Rectangle_50" data-name="Rectangle 50" width="36" height="36" rx="4" transform="translate(1233 349)" fill="#265162"/>
    <path id="XMLID_303_" d="M8.8,19.28A3.794,3.794,0,0,1,9.95,21.918a.435.435,0,0,1-.424.444h-.01a.435.435,0,0,1-.434-.425A2.963,2.963,0,0,0,6.136,19.06l-.094,0a.435.435,0,0,1-.027-.869l.121,0A3.794,3.794,0,0,1,8.8,19.28ZM5.706,3.867H16.46a.435.435,0,0,0,0-.869H5.706a.435.435,0,0,0,0,.869ZM15.718,6.95a.435.435,0,1,0,0-.869H5.706a.435.435,0,1,0,0,.869Zm7.49-2.611a.435.435,0,0,0,.435-.435V3.8a.435.435,0,1,0-.869,0v.1A.434.434,0,0,0,23.208,4.338ZM19.42,5.366a.435.435,0,0,0-.435.435v.1a.435.435,0,0,0,.869,0V5.8A.435.435,0,0,0,19.42,5.366ZM5.594,9.6a.435.435,0,0,1,.435-.435H20.364a2.016,2.016,0,0,1,1-.55V7.746a1.955,1.955,0,0,1-.76-.355,1.969,1.969,0,1,1-2.179-3.271,1.972,1.972,0,0,1,1.408-2.257,1.969,1.969,0,0,1,3.932,0,1.972,1.972,0,0,1,1.408,2.257A1.969,1.969,0,1,1,23,7.39a1.955,1.955,0,0,1-.76.355v.867a2.016,2.016,0,0,1,1,.55h3.387a.435.435,0,1,1,0,.869H23.046a.435.435,0,0,1-.339-.162,1.16,1.16,0,0,0-1.811,0,.434.434,0,0,1-.339.162H6.028A.434.434,0,0,1,5.594,9.6ZM21.367,6.836V5.528a.435.435,0,0,1,.869,0V6.836a1.1,1.1,0,0,0,.422-.321.435.435,0,0,1,.676,0,1.1,1.1,0,1,0,1.187-1.739.434.434,0,0,1-.269-.585,1.1,1.1,0,0,0-.958-1.529.435.435,0,0,1-.408-.507,1.115,1.115,0,0,0,.016-.186,1.1,1.1,0,1,0-2.183.186.434.434,0,0,1-.408.507,1.1,1.1,0,0,0-.958,1.529.435.435,0,0,1-.269.585,1.1,1.1,0,1,0,1.187,1.739.435.435,0,0,1,.676,0A1.1,1.1,0,0,0,21.367,6.836Zm5.259,8.493H16.981a.435.435,0,1,0,0,.869h9.645a.435.435,0,1,0,0-.869Zm0-3.083H14.383a.435.435,0,1,0,0,.869H26.626a.435.435,0,1,0,0-.869Zm0,6.165h-8.3a.435.435,0,1,0,0,.869h8.3a.435.435,0,0,0,0-.869Zm0,3.083H18.844a.435.435,0,0,0,0,.869h7.782a.435.435,0,0,0,0-.869ZM6.234,15.172c-.073,0-.146,0-.219,0a.435.435,0,0,0,.027.869c.064,0,.128,0,.192,0a6.071,6.071,0,0,1,6.035,5.9.435.435,0,0,0,.434.425h.01a.435.435,0,0,0,.424-.444,6.906,6.906,0,0,0-6.9-6.746Zm.1-2.931c-.095,0-.2,0-.315.005a.435.435,0,0,0,.027.869c.109,0,.2-.005.287-.005a9.089,9.089,0,0,1,9.035,8.827.435.435,0,0,0,.434.425h.01a.435.435,0,0,0,.424-.444,9.907,9.907,0,0,0-9.9-9.676Z" transform="translate(1233.262 353.955)" fill="#fff"/>
    <path id="plus-svgrepo-com" d="M13.293,7.062H9.4V3.168a1.168,1.168,0,0,0-2.336,0V7.062H3.168a1.168,1.168,0,0,0,0,2.336H7.062v3.894a1.168,1.168,0,0,0,2.336,0V9.4h3.894a1.168,1.168,0,0,0,0-2.336Z" transform="translate(1251.471 365.585)" fill="#fff"/>
    <path id="Polygone_37" data-name="Polygone 37" d="M5.106,1.789a1,1,0,0,1,1.789,0l4.382,8.764A1,1,0,0,1,10.382,12H1.618a1,1,0,0,1-.894-1.447Z" transform="translate(1257 395) rotate(180)" fill="#265162"/>
  </g>
</svg>
