<svg xmlns="http://www.w3.org/2000/svg" width="36" height="46" viewBox="0 0 36 46">
  <g id="Groupe_94" data-name="Groupe 94" transform="translate(-1029 -419)">
    <rect id="Rectangle_61" data-name="Rectangle 61" width="36" height="36" rx="4" transform="translate(1029 419)" fill="#265162"/>
    <path id="exclamation-lg-svgrepo-com" d="M6,14a2,2,0,1,1,2,2A2,2,0,0,1,6,14ZM6.2,1.99a1.81,1.81,0,1,1,3.6,0L9.1,9A1.1,1.1,0,0,1,6.9,9L6.2,1.99Z" transform="translate(1047.826 431.065)" fill="#fff"/>
    <path id="seaweed-svgrepo-com" d="M69.526,5.805a.4.4,0,0,0-.4.4v7.337c0,2.567-1.3,4.731-3.063,5.35q.126-.136.243-.29a4.873,4.873,0,0,0,.928-2.938V2.951a.4.4,0,0,0-.809,0V15.669c0,1.878-1.114,3.405-2.484,3.405H63.87a2.759,2.759,0,0,0,.484-1.593V.4a.4.4,0,1,0-.809,0V17.481a1.559,1.559,0,0,1-.927,1.569,1.559,1.559,0,0,1-.927-1.569V.4a.4.4,0,1,0-.809,0V17.481a2.759,2.759,0,0,0,.484,1.593H61.3c-1.37,0-2.484-1.528-2.484-3.405V2.951a.4.4,0,1,0-.809,0V15.669a4.873,4.873,0,0,0,.928,2.938q.116.154.243.29c-1.76-.618-3.063-2.782-3.063-5.35V6.209a.4.4,0,0,0-.809,0v7.337a7.362,7.362,0,0,0,1.4,4.438,4.4,4.4,0,0,0,3.5,1.9h4.818a4.4,4.4,0,0,0,3.5-1.9,7.362,7.362,0,0,0,1.4-4.438V6.209A.4.4,0,0,0,69.526,5.805Z" transform="translate(983.555 426.935)" fill="#fff"/>
    <path id="Polygone_43" data-name="Polygone 43" d="M5.106,1.789a1,1,0,0,1,1.789,0l4.382,8.764A1,1,0,0,1,10.382,12H1.618a1,1,0,0,1-.894-1.447Z" transform="translate(1053 465) rotate(180)" fill="#265162"/>
  </g>
</svg>
